<?xml version="1.0" encoding="UTF-8"?>
<svg id="Capa_1" data-name="Capa 1" xmlns="http://www.w3.org/2000/svg" version="1.1" viewBox="0 0 529.7 223">
  <defs>
    <style>
      .cls-1 {
        fill: #b71234;
        stroke-width: 0px;
      }
    </style>
  </defs>
  <path class="cls-1" d="M500.3,112.4c0-1.3-.2-2.4-.6-3.3-.4-1-1-1.7-1.8-2.3-.8-.5-1.8-.8-3-.8s-2.2.3-3,.8c-.8.5-1.5,1.2-1.9,2.2-.4,1-.7,2.1-.7,3.4s.1,1.8.4,2.6c.2.8.6,1.5,1.1,2,.5.6,1,1,1.7,1.3.7.3,1.4.5,2.3.5s1.7-.2,2.4-.5c.7-.3,1.3-.8,1.7-1.3.5-.6.8-1.2,1-2,.2-.8.4-1.7.4-2.6h0ZM499.1,112.4c0,1.1-.2,2-.5,2.8-.3.8-.8,1.5-1.4,1.9-.6.5-1.5.7-2.4.7s-1.8-.2-2.4-.7c-.6-.5-1.1-1.1-1.4-1.9-.3-.8-.5-1.8-.5-2.8,0-1.7.4-3,1.1-4,.7-1,1.8-1.4,3.3-1.4s1.8.2,2.4.7c.6.5,1.1,1.1,1.4,1.9.3.8.4,1.7.4,2.8h0ZM410,118.6h1.1v-8.1c0-1.6-.4-2.7-1.1-3.4-.7-.7-1.8-1.1-3.2-1.1s-1.4.1-2,.3c-.6.2-1,.5-1.4.9-.4.4-.7.8-.9,1.3h0l-.2-2.3h-.9v12.4h1.1v-6.8c0-1.6.4-2.8,1.1-3.6.7-.8,1.8-1.2,3.1-1.2s1.9.3,2.4.9c.6.6.8,1.5.8,2.7v8h0ZM396.6,118.6h.9v-8.3c0-1.5-.3-2.6-1-3.3-.7-.7-1.7-1-3-1s-1.5,0-2.1.3c-.7.2-1.3.4-1.9.7l.4,1c.6-.3,1.2-.5,1.8-.7.6-.2,1.2-.2,1.8-.2,1,0,1.7.3,2.2.8.5.5.8,1.4.8,2.7v.9h-2.3c-1.9.2-3.4.6-4.4,1.2-1,.6-1.5,1.6-1.5,2.8s.2,1.3.5,1.9c.3.5.7.9,1.3,1.2.6.3,1.2.4,2,.4s1.5-.1,2-.3c.5-.2,1-.5,1.4-.8.4-.4.7-.8,1-1.2h0l.2,2.2h0ZM396.3,113.5c0,1.3-.4,2.4-1.1,3.2-.7.8-1.8,1.2-3.1,1.2s-1.6-.2-2-.6c-.5-.4-.7-1-.7-1.8s.4-1.7,1.2-2.2c.8-.5,2-.8,3.6-.8h2.2c0,0,0,1.1,0,1.1h0ZM416.2,106.2h-1.1v12.4h1.1v-12.4h0ZM419.5,106.2h-1.2l4.7,12.4h1.2l4.8-12.4h-1.2l-3.2,8.4c-.2.5-.4,1-.5,1.5-.2.5-.3.9-.4,1.3h0c-.1-.4-.2-.8-.4-1.3-.2-.5-.3-1-.5-1.5l-3.2-8.4h0ZM430.9,109.2c-.4,1-.6,2.1-.6,3.3s.2,2.4.6,3.3c.4.9,1.1,1.7,1.9,2.2.8.5,1.9.8,3.1.8s1.5,0,2.1-.2c.6-.1,1.2-.3,1.8-.6v-1.1c-.7.3-1.3.5-1.9.6-.6.1-1.2.2-2,.2-1.5,0-2.6-.5-3.4-1.4-.8-.9-1.2-2.2-1.2-3.9h8.9v-.8c0-1.1-.2-2.1-.5-2.9-.3-.9-.9-1.5-1.6-2-.7-.5-1.6-.7-2.6-.7s-2.1.3-2.9.9c-.8.6-1.4,1.4-1.8,2.3h0ZM431.5,111.5c.1-1.5.6-2.6,1.3-3.4.7-.8,1.7-1.2,2.9-1.2s1.5.2,2,.6c.5.4.9.9,1.2,1.6.3.7.4,1.5.4,2.4h-7.7ZM444.7,106.2h-1v12.4h1.2v-6.8c0-.7,0-1.4.2-1.9.2-.6.4-1.1.7-1.5.3-.4.7-.7,1.2-.9.5-.2,1-.3,1.6-.3s.6,0,.8,0c.3,0,.5,0,.8.2l.2-1.1c-.2,0-.5-.1-.8-.2-.3,0-.6,0-.9,0-.6,0-1.2.1-1.7.3-.5.2-.9.5-1.3.9-.3.4-.6.8-.8,1.3h0v-2.3h-.1ZM453.6,117.6c-.7-.2-1.3-.4-1.9-.7v1.1c.5.2,1,.4,1.7.6.7.2,1.4.2,2.3.2s1.9-.1,2.6-.4c.7-.3,1.2-.7,1.6-1.2.4-.5.6-1.1.6-1.9s-.2-1.3-.5-1.8c-.4-.4-.9-.8-1.5-1.1-.6-.3-1.3-.5-2-.8-.7-.2-1.3-.5-1.8-.7-.5-.2-.9-.4-1.2-.8-.3-.3-.4-.7-.4-1.2s.3-1.2.9-1.6c.6-.4,1.4-.5,2.4-.5s1.2,0,1.8.2c.6.1,1.2.3,1.6.5l.4-1c-.5-.2-1.1-.4-1.7-.5-.6-.1-1.3-.2-2.1-.2-1.3,0-2.4.3-3.2.8-.8.6-1.2,1.3-1.2,2.3s.2,1.3.5,1.7c.3.4.8.8,1.4,1,.6.3,1.3.5,2,.8.7.2,1.3.5,1.9.7.5.2.9.5,1.2.8.3.3.4.7.4,1.2,0,.8-.3,1.3-.8,1.8-.6.4-1.5.6-2.8.6s-1.4,0-2.1-.3h0ZM464.1,112.6c-1,.6-1.5,1.6-1.5,2.8s.2,1.3.5,1.9c.3.5.7.9,1.3,1.2.6.3,1.2.4,2,.4s1.5-.1,2-.3c.5-.2,1-.5,1.4-.8.4-.4.7-.8,1-1.2h0l.2,2.2h.9v-8.3c0-1.5-.3-2.6-1-3.3-.7-.7-1.7-1-3-1s-1.5,0-2.1.3c-.7.2-1.3.4-1.9.7l.4,1c.6-.3,1.2-.5,1.8-.7.6-.2,1.2-.2,1.8-.2,1,0,1.7.3,2.2.8.5.5.8,1.4.8,2.7v.9h-2.3c-1.9.2-3.4.6-4.4,1.2h0ZM463.8,115.4c0-1,.4-1.7,1.2-2.2.8-.5,2-.8,3.6-.8h2.2c0,0,0,1.1,0,1.1,0,1.3-.4,2.4-1.1,3.2-.7.8-1.8,1.2-3.1,1.2s-1.6-.2-2-.6c-.5-.4-.7-1-.7-1.8h0ZM476.8,106.2h-1v12.4h1.2v-6.8c0-.7,0-1.4.3-1.9.2-.6.4-1.1.7-1.5.3-.4.7-.7,1.2-.9.5-.2,1-.3,1.6-.3s.6,0,.8,0c.3,0,.5,0,.8.2l.2-1.1c-.2,0-.5-.1-.8-.2-.3,0-.6,0-.9,0-.6,0-1.2.1-1.7.3-.5.2-.9.5-1.3.9-.3.4-.6.8-.8,1.3h0v-2.3h-.1ZM486,106.2h-1.1v12.4h1.1v-12.4h0Z"/>
  <path class="cls-1" d="M500.6,79.2v-12.6s0-8,0-8c0-4.3-1.3-10.2-5.7-13.6-5.3-4-13.7-5-22.9-5s-18.4.9-24,5.5c-4.2,3.4-5.2,9.4-5.2,13.1v12.3s0,8,0,8h0s18.5,0,18.5,0v-14.6c0-2.1.4-4.4,2.1-6.4,1.9-2.2,4.9-2.3,8.3-2.3s5.5.2,7.8,1.8c2,1.5,2.6,5.4,2.6,7.3v8c0,1.8-.6,5.8-2.6,7.3-1.9,1.4-3.9,1.7-6.4,1.8h-39.6v16h38.5c9.1,0,17.6-1,22.9-5,4.4-3.4,5.7-9.3,5.7-13.6h0ZM431,97.8v-56s-19.4,0-19.4,0l-23.9,40h0s0,16.1,0,16.1h22.9v-16h-5.7l8.2-15.9v31.9h17.8Z"/>
  <path class="cls-1" d="M364.6,97.8v-56h-19.4l-19.4,32.4-19.3-32.4h-19.4v56h17.8v-31.9l16.7,31.9h8.7l16.6-31.9v31.9h17.8ZM226.2,97.8h49.4v-16h-29.9v-40h-19.5v56h0ZM174.8,70.1c0-9.3,5.1-15.9,17.8-15.9s20.4,4.5,20.4,4.5l-1.1-14.6s-10.6-3.1-22.5-3.1-33.6,1.3-33.6,29,20.3,28.7,33.6,28.7,24.9-3.9,24.9-3.9l.5-14.4s-13.9,5.1-22.1,5.1-17.9-5.9-17.9-15.3h0ZM138.8,93.5c4.4-3.4,5.7-9.3,5.7-13.6v-38.1h-18.4v32c0,1.8-.6,5.8-2.6,7.3-2.3,1.7-4.7,1.8-7.8,1.8s-6.5,0-8.3-2.3c-1.7-2-2.1-4.2-2.1-6.4v-32.5h-18.5v38.2c0,3.7,1,9.7,5.2,13.1,5.6,4.6,14.1,5.5,24,5.5s17.6-1,22.9-5h0Z"/>
  <path class="cls-1" d="M75.8,70.5c-4-13.9-14.9-24.9-28.6-28.8-13.7,4-24.5,15-28.4,28.8l8.4,8.4v-8.6c.5-10.8,9.3-19.2,20.1-19.2,11.1,0,20.1,9,20.1,20.1v7.7l8.4-8.4h0ZM32.4,70.3v.4s0,13.4,0,13.4l4.9,4.9v-4.8c0-1.7.7-3.3,2-4.4-1.2-1.7-1.9-3.8-1.9-5.9,0-5.5,4.5-10,10-10,5.5,0,10,4.5,10,10s-.7,4.2-1.9,5.9c1.2,1.1,1.9,2.7,1.9,4.3v4.8l4.9-4.9v-12.9c0-8.2-6.7-14.9-14.9-14.9-7.9,0-14.5,6.2-14.9,14.1h0ZM44.7,78.4v5.2h-1.6c-.4,0-.7.3-.7.7v8.6s4.9,4.9,4.9,4.9l4.9-4.9v-8.6c0-.4-.3-.7-.7-.7h-1.6v-5.1l.6-.5c1.2-1,1.9-2.4,1.9-4,0-2.8-2.3-5.1-5.1-5.1s-5.1,2.3-5.1,5.1.7,3,1.9,3.9l.6.5h0Z"/>
  <path class="cls-1" d="M113.2,118.6v24.7c0,3.5-1,6.3-3,8.3-2,2-4.8,3-8.4,3s-6.5-1-8.6-3c-2-2-3-4.9-3-8.5v-24.4h-2.7v24.3c0,4.4,1.2,7.8,3.7,10.3,2.5,2.5,5.9,3.7,10.2,3.7s8-1.2,10.5-3.7c2.5-2.4,3.8-5.8,3.8-10.2v-24.4h-2.6ZM147.9,156.3v-18.4c0-6.8-3.2-10.3-9.6-10.3s-7.9,1.5-9.7,4.4h-.2l-.5-3.9h-2.2v28.1h2.6v-15.5c0-3.8.8-6.6,2.3-8.3,1.6-1.7,4-2.5,7.4-2.5s4.3.6,5.5,1.9c1.2,1.3,1.8,3.3,1.8,6.2v18.2h2.5ZM159.9,128.2h-2.6v28.1h2.6v-28.1h0ZM158.6,123c.5,0,1-.2,1.3-.7.3-.4.5-1.1.5-1.8s-.2-1.4-.5-1.8c-.3-.4-.7-.6-1.3-.6-1.1,0-1.6.8-1.6,2.5s.5,2.5,1.6,2.5h0ZM178.4,156.3l10.9-28.1h-2.6l-7.3,19c-.7,2-1.5,4.1-2.2,6.5h-.2c-.5-1.8-1.2-4-2.2-6.4l-7.3-19.1h-2.6l10.9,28.1h2.6ZM210,156.5c1.3-.2,2.8-.7,4.4-1.4v-2.3c-1.9.7-3.4,1.2-4.6,1.4-1.2.2-2.6.3-4.2.3-3.3,0-5.8-1-7.6-3-1.8-2-2.7-5-2.7-8.8h20.2v-2.1c0-4-1-7.1-2.9-9.4-1.9-2.3-4.5-3.5-7.8-3.5s-6.7,1.3-8.9,4c-2.2,2.7-3.3,6.3-3.3,10.8s1.1,8.1,3.4,10.6c2.3,2.5,5.5,3.8,9.5,3.8s3.1-.1,4.4-.4h0ZM210.7,132.7c1.4,1.8,2.1,4.4,2.1,7.6h-17.4c.3-3.4,1.2-5.9,2.9-7.7,1.6-1.8,3.8-2.7,6.5-2.7s4.5.9,5.9,2.8h0ZM229.9,129c-1.3.8-2.5,2.3-3.7,4.4h-.2l-.3-5.1h-2.2v28.1h2.6v-15.5c0-3.1.8-5.7,2.3-7.7,1.5-2,3.5-3,5.9-3s2.5.1,3.6.4l.5-2.5c-1.4-.2-2.6-.4-3.8-.4-1.9,0-3.4.4-4.8,1.3h0ZM261.1,145.7c-.6-.9-1.4-1.8-2.6-2.5-1.2-.7-3-1.6-5.5-2.5-3-1.1-5.1-2.1-6.1-2.9-1-.9-1.6-2-1.6-3.5s.7-2.4,2-3.2c1.3-.8,3.2-1.1,5.5-1.1s4.9.6,7.7,1.7l1-2.3c-2.7-1.1-5.6-1.7-8.6-1.7s-5.6.6-7.4,1.8c-1.8,1.2-2.6,2.9-2.6,5s.3,2.5.9,3.4c.6.9,1.4,1.7,2.6,2.5,1.1.7,3.1,1.6,5.9,2.6,2.6.9,4.5,1.9,5.6,2.8,1.1,1,1.7,2.2,1.7,3.6s-.7,2.8-2.2,3.7c-1.4.9-3.5,1.4-6.3,1.4s-6.1-.7-8.9-2.1v2.8c2.2,1.2,5.2,1.7,8.9,1.7s6.2-.7,8.1-2c1.9-1.4,2.9-3.3,2.9-5.8s-.3-2.4-.9-3.3h0ZM272,128.2h-2.6v28.1h2.6v-28.1h0ZM270.8,123c.5,0,1-.2,1.3-.7.3-.4.5-1.1.5-1.8s-.2-1.4-.5-1.8c-.3-.4-.7-.6-1.3-.6-1.1,0-1.6.8-1.6,2.5s.5,2.5,1.6,2.5h0ZM283.2,131.6c-2,2.6-3,6.3-3,11.1s1,8.1,3.1,10.5c2,2.4,5,3.6,8.9,3.6s7.1-1.6,9.2-4.8h.2l.6,4.3h1.7v-40.2h-2.5v10.1c0,2.1,0,4.2.2,6.4h-.2c-1.2-1.8-2.5-3.1-4-3.8-1.5-.7-3.2-1.1-5.3-1.1-3.9,0-6.8,1.3-8.9,3.8h0ZM299.1,132.9c1.5,1.9,2.2,5,2.2,9.4v.4c0,4.2-.7,7.3-2.2,9.1-1.5,1.8-3.8,2.8-7,2.8-6.2,0-9.3-4-9.3-11.9s.8-7.2,2.3-9.4c1.5-2.2,3.8-3.2,6.9-3.2s5.6,1,7.1,2.9h0ZM332.5,156.3v-18.7c0-3.4-.8-5.9-2.3-7.5-1.5-1.6-3.8-2.4-6.9-2.4s-6.1.7-9.1,2.2l1,2.2c2.8-1.4,5.5-2.2,8.1-2.2s4.2.7,5.2,2c1.1,1.4,1.6,3.4,1.6,6v1.9l-5.3.2c-4.3,0-7.6.9-9.9,2.4-2.3,1.5-3.4,3.6-3.4,6.4s.8,4.5,2.3,5.9c1.5,1.4,3.7,2.1,6.4,2.1s3.8-.4,5.3-1.1c1.5-.7,2.9-2,4.4-3.8h.2l.6,4.4h1.9ZM315.7,153.1c-1.1-1-1.6-2.3-1.6-4.1s.8-3.8,2.5-4.9c1.7-1,4.5-1.7,8.4-1.8l4.9-.2v2.8c0,3-.9,5.4-2.6,7.1-1.7,1.7-4.1,2.6-7.1,2.6s-3.5-.5-4.6-1.5h0ZM343.4,131.6c-2,2.6-3,6.3-3,11.1s1,8.1,3.1,10.5c2,2.4,5,3.6,8.9,3.6s7.1-1.6,9.2-4.8h.2l.6,4.3h1.7v-40.2h-2.5v10.1c0,2.1,0,4.2.2,6.4h-.2c-1.2-1.8-2.5-3.1-4-3.8s-3.2-1.1-5.3-1.1c-3.9,0-6.8,1.3-8.9,3.8h0ZM359.3,132.9c1.5,1.9,2.2,5,2.2,9.4v.4c0,4.2-.7,7.3-2.2,9.1-1.5,1.8-3.8,2.8-7,2.8-6.2,0-9.3-4-9.3-11.9s.8-7.2,2.3-9.4c1.5-2.2,3.8-3.2,6.9-3.2s5.6,1,7.1,2.9h0Z"/>
  <path class="cls-1" d="M99.9,172.7c.8.3,1.6.6,2.4,1l1.4-3.6c-1-.5-2-.8-3-1.1-1.1-.3-2.1-.4-3.1-.4-1.6,0-3,.3-4.2.8-1.2.5-2.3,1.3-3.1,2.2-.8,1-1.5,2.1-1.9,3.4-.4,1.3-.6,2.8-.6,4.4s.3,4,1,5.7c.7,1.6,1.7,2.9,3.1,3.8,1.4.9,3.2,1.3,5.3,1.3s2.1,0,3-.3c.9-.2,1.8-.4,2.8-.8v-3.7c-1,.4-1.9.6-2.8.8-.9.2-1.7.3-2.6.3-1.2,0-2.2-.3-3-.8-.8-.6-1.4-1.4-1.7-2.4-.4-1.1-.6-2.3-.6-3.8s.1-2.1.3-3c.2-.9.6-1.6,1-2.3.4-.6,1-1.1,1.7-1.4.7-.3,1.4-.5,2.3-.5s1.6.1,2.3.4h0ZM110.4,173.9c-1.1.3-2,.6-2.9,1.1l1.5,3c.7-.3,1.5-.6,2.2-.8.7-.2,1.5-.3,2.3-.3s1.4.2,1.8.6c.4.4.7,1,.7,1.9v.7h-2.8c-2.4.2-4.2.6-5.4,1.4-1.2.8-1.8,2.1-1.8,3.8s.2,2.1.6,2.9c.4.8,1,1.3,1.8,1.7.8.4,1.6.5,2.6.5s1.7,0,2.3-.3c.6-.2,1.2-.4,1.7-.8.5-.4,1-.8,1.4-1.4h.1l.8,2.2h3.1v-10.7c0-1.9-.6-3.3-1.7-4.3-1.2-.9-2.8-1.4-5-1.4s-2.2.1-3.3.4h0ZM116,183.8c0,1-.3,1.8-1,2.4-.6.6-1.4.8-2.4.8s-1.1-.1-1.5-.4c-.4-.3-.6-.8-.6-1.4s.3-1.4.8-1.9c.6-.5,1.5-.7,3-.8h1.7c0,0,0,1.3,0,1.3h0ZM135.6,182.9c-.4-.6-.9-1.1-1.6-1.5-.7-.4-1.5-.8-2.4-1.2-.9-.4-1.7-.7-2.1-.9-.5-.2-.8-.5-1-.7-.2-.2-.3-.4-.3-.7s.2-.6.5-.8c.3-.2.8-.3,1.5-.3s1.4.1,2.2.3c.7.2,1.5.5,2.3.8l1.3-3.2c-1-.4-1.9-.8-2.8-1-.9-.2-1.9-.3-2.9-.3-1.9,0-3.5.4-4.6,1.1-1.2.8-1.7,1.9-1.7,3.4s.2,1.7.5,2.3c.3.6.8,1.1,1.4,1.5.6.4,1.5.9,2.5,1.3,1,.4,1.8.8,2.3,1.1.5.3.8.5,1,.7.1.2.2.5.2.7,0,.4-.2.7-.6,1-.4.3-1,.4-1.8.4s-1.6-.1-2.6-.4c-1-.3-1.9-.6-2.8-1v3.6c.8.3,1.6.6,2.4.7.8.1,1.8.2,2.9.2s2.8-.2,3.8-.6c1-.4,1.8-1,2.3-1.7.5-.8.8-1.7.8-2.8s-.2-1.7-.5-2.3h0ZM145,186.3c-.3-.3-.5-.8-.5-1.4v-7.8h4.5v-3.3h-4.5v-3.4h-2.8l-1.3,3.4-2.4,1.5v1.9h2.1v7.8c0,1.4.2,2.5.7,3.2.4.8,1,1.3,1.8,1.6.8.3,1.6.5,2.6.5s1.6,0,2.3-.2c.7-.1,1.3-.3,1.7-.5v-3.3c-.5.1-.9.3-1.4.4-.5,0-.9.1-1.4.1s-1-.2-1.4-.5h0ZM152.4,173.9v16.1h4.4v-16.1h-4.4ZM152.9,168c-.5.3-.7.9-.7,1.7s.2,1.4.7,1.7c.5.3,1,.5,1.7.5s1.2-.2,1.7-.5c.5-.3.7-.9.7-1.7s-.2-1.4-.7-1.7c-.5-.3-1-.5-1.7-.5s-1.2.2-1.7.5h0ZM165.8,167.6h-4.4v22.4h4.4v-22.4h0ZM174.8,167.6h-4.4v22.4h4.4v-22.4h0ZM182.7,173.9c-1.1.3-2,.6-2.9,1.1l1.5,3c.7-.3,1.5-.6,2.2-.8.7-.2,1.5-.3,2.3-.3s1.4.2,1.8.6c.4.4.7,1,.7,1.9v.7h-2.8c-2.4.2-4.2.6-5.4,1.4-1.2.8-1.8,2.1-1.8,3.8s.2,2.1.6,2.9c.4.8,1,1.3,1.8,1.7.8.4,1.6.5,2.6.5s1.7,0,2.3-.3c.6-.2,1.2-.4,1.7-.8.5-.4,1-.8,1.4-1.4h.1l.8,2.2h3.1v-10.7c0-1.9-.6-3.3-1.7-4.3-1.2-.9-2.8-1.4-5-1.4s-2.2.1-3.3.4h0ZM188.3,183.8c0,1-.3,1.8-1,2.4-.6.6-1.4.8-2.4.8s-1.1-.1-1.5-.4c-.4-.3-.6-.8-.6-1.4s.3-1.4.8-1.9c.6-.5,1.5-.7,3-.8h1.7c0,0,0,1.3,0,1.3h0ZM201.5,184.7c.4.1.7.2,1.1.2s.9-.1,1.3-.4c.4-.3.7-.7,1.1-1.2v-3.3c-.3.5-.7.9-1,1.2-.4.3-.8.5-1.1.5s-.6,0-.9-.2c-.3-.1-.7-.3-1.2-.6-.6-.4-1.1-.6-1.5-.8-.4-.1-.7-.2-1.1-.2s-.9.1-1.3.4c-.4.3-.8.7-1.1,1.2v3.3c.3-.5.7-.9,1.1-1.2.4-.3.8-.5,1.1-.5s.6,0,.9.2c.3.1.7.3,1.2.6.6.4,1.1.6,1.5.7h0ZM221.5,190v-3.7h-8.5v-17.4h-4.5v21.1h13ZM228.1,173.9c-1.1.3-2,.6-2.9,1.1l1.5,3c.7-.3,1.5-.6,2.2-.8.7-.2,1.5-.3,2.3-.3s1.4.2,1.8.6c.4.4.7,1,.7,1.9v.7h-2.8c-2.4.2-4.2.6-5.4,1.4-1.2.8-1.8,2.1-1.8,3.8s.2,2.1.6,2.9c.4.8,1,1.3,1.8,1.7.8.4,1.6.5,2.6.5s1.7,0,2.3-.3c.6-.2,1.2-.4,1.7-.8.5-.4,1-.8,1.4-1.4h.1l.9,2.2h3.1v-10.7c0-1.9-.6-3.3-1.7-4.3-1.2-.9-2.8-1.4-5-1.4s-2.2.1-3.3.4h0ZM233.7,183.8c0,1-.3,1.8-1,2.4-.6.6-1.4.8-2.4.8s-1.1-.1-1.5-.4c-.4-.3-.6-.8-.6-1.4s.3-1.4.8-1.9,1.5-.7,3-.8h1.7c0,0,0,1.3,0,1.3h0ZM263.6,190l5.4-16.5h.1c0,.4,0,1,0,1.8,0,.8,0,1.6,0,2.5,0,.9,0,1.6,0,2.3v10h4.2v-21.1h-6.1l-5.3,16.1h0l-5-16.1h-6.1v21.1h4v-9.8c0-.7,0-1.5,0-2.4,0-.9,0-1.7-.1-2.5,0-.8,0-1.4,0-1.8h.1l5.1,16.5h4.1ZM281.4,173.9c-1.1.3-2,.6-2.9,1.1l1.5,3c.7-.3,1.5-.6,2.2-.8.7-.2,1.5-.3,2.3-.3s1.4.2,1.8.6c.4.4.7,1,.7,1.9v.7h-2.8c-2.4.2-4.2.6-5.4,1.4-1.2.8-1.8,2.1-1.8,3.8s.2,2.1.6,2.9c.4.8,1,1.3,1.8,1.7.8.4,1.6.5,2.6.5s1.7,0,2.3-.3c.6-.2,1.2-.4,1.7-.8.5-.4,1-.8,1.4-1.4h.1l.9,2.2h3.1v-10.7c0-1.9-.6-3.3-1.7-4.3-1.2-.9-2.8-1.4-5-1.4s-2.2.1-3.3.4h0ZM287,183.8c0,1-.3,1.8-1,2.4-.6.6-1.4.8-2.4.8s-1.1-.1-1.5-.4c-.4-.3-.6-.8-.6-1.4s.3-1.4.8-1.9c.6-.5,1.5-.7,3-.8h1.7c0,0,0,1.3,0,1.3h0ZM303.1,173.8c-.6.2-1.2.4-1.7.8-.5.3-.9.8-1.3,1.4h-.2l-.6-2.1h-3.4v16.1h4.4v-7.6c0-1.7.2-3,.7-3.9.5-.9,1.4-1.4,2.7-1.4s1.5.3,2,.9c.4.6.6,1.5.6,2.6v9.4h4.4v-10.5c0-2.1-.5-3.6-1.6-4.5-1-.9-2.4-1.4-4.1-1.4s-1.3,0-2,.2h0ZM324.6,190c.7-.2,1.4-.5,2.1-.9v-3.8c-.7.4-1.4.8-2.1,1-.7.2-1.5.4-2.4.4s-1.3-.2-1.9-.5c-.5-.3-.9-.9-1.2-1.6-.3-.7-.4-1.6-.4-2.6s.1-2,.4-2.7c.2-.7.6-1.3,1.1-1.6s1.1-.5,1.9-.5,1.2,0,1.8.3c.6.2,1.2.4,1.9.7l1.3-3.4c-.6-.3-1.3-.6-2.1-.8-.8-.2-1.8-.3-2.9-.3s-2.9.3-4.1.9c-1.2.6-2.1,1.5-2.8,2.7-.7,1.2-1,2.8-1,4.8s.3,3.5.9,4.7c.6,1.2,1.4,2.1,2.6,2.7,1.1.6,2.5.9,4.1.9s2.1,0,2.8-.3h0ZM330.4,167.6v22.4h4.4v-7.6c0-1.1.1-2.1.3-2.9.2-.8.6-1.4,1.1-1.8.5-.4,1.2-.6,2.1-.6s1.5.3,2,.9c.4.6.6,1.5.6,2.6v9.4h4.4v-10.5c0-1.4-.2-2.5-.7-3.4-.5-.9-1.2-1.5-2-1.9-.9-.4-1.9-.6-3-.6s-1.3,0-1.9.2c-.6.2-1.1.4-1.6.8-.5.3-.9.8-1.2,1.4h-.2c0-.3,0-.8.1-1.5,0-.7,0-1.5,0-2.3v-4.6h-4.4ZM353.1,173.9c-1.1.3-2,.6-2.9,1.1l1.5,3c.7-.3,1.5-.6,2.2-.8.7-.2,1.5-.3,2.3-.3s1.4.2,1.8.6c.4.4.7,1,.7,1.9v.7h-2.8c-2.4.2-4.2.6-5.4,1.4-1.2.8-1.8,2.1-1.8,3.8s.2,2.1.6,2.9c.4.8,1,1.3,1.8,1.7.8.4,1.6.5,2.6.5s1.7,0,2.3-.3c.6-.2,1.2-.4,1.7-.8.5-.4,1-.8,1.4-1.4h.1l.9,2.2h3.1v-10.7c0-1.9-.6-3.3-1.7-4.3-1.2-.9-2.8-1.4-5-1.4s-2.2.1-3.3.4h0ZM358.7,183.8c0,1-.3,1.8-1,2.4-.6.6-1.4.8-2.4.8s-1.1-.1-1.5-.4c-.4-.3-.6-.8-.6-1.4s.3-1.4.8-1.9c.6-.5,1.5-.7,3-.8h1.7c0,0,0,1.3,0,1.3h0Z"/>
</svg>